<svg width="1375" height="429" viewBox="0 0 1375 429" fill="none" xmlns="http://www.w3.org/2000/svg">
<g clip-path="url(#clip0_439_2776)">
<rect width="1375" height="431" fill="#6C86BA"/>
<path d="M-366 410L-50.7211 130.686C51.0563 40.519 101.945 -4.56465 155.944 7.13105C209.942 18.8267 237.616 80.9265 292.963 205.126L312.945 249.966C360.251 356.12 383.904 409.197 431.233 423.77C478.562 438.342 527.973 407.762 626.795 346.6L810.041 233.187C863.518 200.09 890.257 183.541 916.311 181.364C943.393 179.101 970.344 187.036 991.878 203.613C1012.6 219.562 1026.1 247.959 1053.11 304.754L1113.81 432.384C1125.55 457.07 1131.42 469.413 1135.39 475.51C1184.11 550.338 1297.21 538.039 1328.72 454.486C1331.28 447.678 1334.36 434.362 1340.52 407.73L1375.91 254.739C1395.97 167.982 1519.43 167.759 1539.81 254.443V254.443L1611.28 587.139" stroke="#3A5496" stroke-opacity="0.2" stroke-width="213"/>
</g>
<defs>
<clipPath id="clip0_439_2776">
<rect width="1375" height="429" rx="40" fill="white"/>
</clipPath>
</defs>
</svg>
