<svg width="1363" height="429" viewBox="0 0 1363 429" fill="none" xmlns="http://www.w3.org/2000/svg">
<path d="M-164 334.761L67.2024 129.933C141.839 63.8108 179.157 30.7496 218.755 39.3264C258.354 47.9032 278.648 93.4426 319.235 184.521L333.889 217.404C368.579 295.25 385.925 334.173 420.632 344.859C455.34 355.545 491.575 333.12 564.043 288.268L698.423 205.099C737.639 180.828 757.247 168.693 776.354 167.096C796.214 165.436 815.977 171.255 831.769 183.412C846.962 195.108 856.865 215.932 876.672 257.582L921.182 351.176C929.792 369.279 934.096 378.33 937.008 382.802C972.741 437.675 1055.68 428.656 1078.78 367.384C1080.67 362.392 1082.92 352.627 1087.44 333.096L1113.39 220.904C1128.1 157.283 1218.64 157.119 1233.58 220.687V220.687L1285.99 464.662" stroke="#3A5496" stroke-opacity="0.04" stroke-width="156.199"/>
</svg>
